<svg width="20" height="20" viewBox="0 0 20 20" fill="none" xmlns="http://www.w3.org/2000/svg">
<path d="M12.9999 10.0004C12.9999 10.796 12.6838 11.5591 12.1212 12.1217C11.5586 12.6843 10.7956 13.0004 9.9999 13.0004C9.20425 13.0004 8.44119 12.6843 7.87858 12.1217C7.31597 11.5591 6.9999 10.796 6.9999 10.0004C6.9999 9.82939 7.0179 9.66239 7.0489 9.50039H5.9999V13.4974C5.9999 13.7754 6.2249 14.0004 6.5029 14.0004H13.4979C13.6311 14.0001 13.7588 13.947 13.8529 13.8527C13.947 13.7584 13.9999 13.6306 13.9999 13.4974V9.50039H12.9509C12.9819 9.66239 12.9999 9.82939 12.9999 10.0004ZM9.9999 12.0004C10.2626 12.0003 10.5227 11.9485 10.7654 11.8479C11.0081 11.7473 11.2286 11.5999 11.4143 11.4141C11.6 11.2283 11.7473 11.0077 11.8478 10.765C11.9483 10.5223 12 10.2621 11.9999 9.99939C11.9998 9.73668 11.948 9.47656 11.8474 9.23387C11.7468 8.99118 11.5994 8.77069 11.4136 8.58497C11.2278 8.39925 11.0072 8.25195 10.7645 8.15148C10.5218 8.051 10.2616 7.99932 9.9989 7.99939C9.46834 7.99952 8.95955 8.21042 8.58448 8.58568C8.20941 8.96094 7.99877 9.46983 7.9989 10.0004C7.99903 10.531 8.20993 11.0397 8.58519 11.4148C8.96045 11.7899 9.46934 12.0005 9.9999 12.0004ZM12.3999 7.90039H13.5989C13.6786 7.90039 13.755 7.86882 13.8114 7.81258C13.8678 7.75635 13.8996 7.68005 13.8999 7.60039V6.40139C13.8999 6.32156 13.8682 6.245 13.8117 6.18855C13.7553 6.1321 13.6787 6.10039 13.5989 6.10039H12.3999C12.3201 6.10039 12.2435 6.1321 12.1871 6.18855C12.1306 6.245 12.0989 6.32156 12.0989 6.40139V7.60039C12.0999 7.76539 12.2349 7.90039 12.3999 7.90039ZM9.9999 0.400391C7.45382 0.400391 5.01203 1.41182 3.21168 3.21217C1.41133 5.01251 0.399902 7.45431 0.399902 10.0004C0.399902 12.5465 1.41133 14.9883 3.21168 16.7886C5.01203 18.589 7.45382 19.6004 9.9999 19.6004C11.2606 19.6004 12.5089 19.3521 13.6737 18.8696C14.8384 18.3872 15.8967 17.6801 16.7881 16.7886C17.6796 15.8972 18.3867 14.8389 18.8691 13.6742C19.3516 12.5094 19.5999 11.2611 19.5999 10.0004C19.5999 8.7397 19.3516 7.49136 18.8691 6.32663C18.3867 5.1619 17.6796 4.10361 16.7881 3.21217C15.8967 2.32072 14.8384 1.61359 13.6737 1.13115C12.5089 0.648702 11.2606 0.400391 9.9999 0.400391ZM14.9999 13.8894C14.9999 14.5004 14.4999 15.0004 13.8889 15.0004H6.1109C5.4999 15.0004 4.9999 14.5004 4.9999 13.8894V6.11139C4.9999 5.50039 5.4999 5.00039 6.1109 5.00039H13.8889C14.4999 5.00039 14.9999 5.50039 14.9999 6.11139V13.8894Z" fill="#666666"/>
</svg>
